<svg width="28.000000" height="28.000000" viewBox="0 0 28 28" fill="none" xmlns="http://www.w3.org/2000/svg" xmlns:xlink="http://www.w3.org/1999/xlink">
	<desc>
			Created with Pixso.
	</desc>
	<defs/>
	<path id="Vector" d="M21.52 16.19C21.77 16.19 22.02 16.12 22.22 15.97C22.42 15.83 22.57 15.62 22.64 15.39L24.95 7.7C25 7.53 25.01 7.36 24.98 7.19C24.94 7.03 24.87 6.87 24.76 6.73C24.65 6.6 24.51 6.49 24.35 6.41C24.19 6.33 24.02 6.29 23.84 6.29L8.52 6.29L7.83 3.81C7.76 3.58 7.62 3.37 7.42 3.22C7.21 3.08 6.97 3 6.71 3L4.15 3C3.85 3 3.55 3.11 3.33 3.32C3.12 3.52 3 3.8 3 4.09C3 4.39 3.12 4.67 3.33 4.87C3.55 5.08 3.85 5.19 4.15 5.19L5.82 5.19L6.51 7.67L6.51 7.69L6.51 7.7L8.83 15.39L9.69 18.68C9.12 18.92 8.63 19.3 8.27 19.79C7.9 20.27 7.69 20.84 7.64 21.43C7.59 22.03 7.71 22.62 7.98 23.15C8.26 23.69 8.68 24.14 9.21 24.46C9.73 24.79 10.34 24.97 10.96 24.99C11.59 25.02 12.21 24.88 12.76 24.59C13.31 24.31 13.77 23.89 14.09 23.38C14.41 22.87 14.57 22.29 14.57 21.69C14.57 21.32 14.5 20.95 14.36 20.59L17.1 20.59C16.97 20.95 16.89 21.32 16.89 21.69C16.89 22.35 17.09 22.98 17.48 23.53C17.86 24.07 18.4 24.49 19.03 24.74C19.67 24.99 20.37 25.06 21.04 24.93C21.71 24.8 22.33 24.49 22.82 24.03C23.31 23.56 23.64 22.98 23.77 22.34C23.9 21.7 23.84 21.03 23.57 20.43C23.31 19.83 22.86 19.31 22.29 18.95C21.72 18.59 21.05 18.39 20.36 18.39L12 18.39L11.42 16.19L21.52 16.19ZM22.3 8.49L20.65 13.99L10.82 13.99L9.16 8.49L22.3 8.49ZM12.26 21.69C12.26 21.91 12.19 22.12 12.06 22.3C11.94 22.48 11.75 22.63 11.54 22.71C11.33 22.79 11.1 22.81 10.87 22.77C10.65 22.73 10.44 22.62 10.28 22.47C10.12 22.32 10.01 22.12 9.96 21.91C9.92 21.69 9.94 21.47 10.03 21.27C10.12 21.07 10.27 20.9 10.46 20.78C10.65 20.66 10.87 20.59 11.1 20.59C11.41 20.59 11.7 20.71 11.92 20.91C12.14 21.12 12.26 21.4 12.26 21.69ZM20.36 22.79C20.13 22.79 19.91 22.73 19.72 22.61C19.53 22.49 19.38 22.31 19.29 22.11C19.21 21.91 19.18 21.69 19.23 21.48C19.27 21.26 19.38 21.07 19.54 20.91C19.71 20.76 19.91 20.66 20.14 20.61C20.36 20.57 20.59 20.59 20.81 20.68C21.02 20.76 21.2 20.9 21.33 21.08C21.45 21.26 21.52 21.48 21.52 21.69C21.52 21.98 21.4 22.26 21.18 22.47C20.96 22.68 20.67 22.79 20.36 22.79Z" fill="#73818E" fill-opacity="1.000000" fill-rule="nonzero"/>
</svg>
